# xmcd CD database file
#
# Track frame offsets:
#	187
#	7140
#	10242
#	25652
#	40197
#	48720
#	52550
#	68287
#	78567
#	94000
#	105430
#	120920
#	130655
#	145570
#	147460
#	162832
#	180892
#	197525
#	214122
#	229780
#	235862
#	249202
#	263107
#	276475
#	294187
#	296400
#	311400
#	316007
#
# Disc length: 4237 seconds
#
# Revision: 0
# Processed by: cddbd v1.5PL3 Copyright (c) Steve Scherf et al.
# Submitted via: CDex 1.51
#
DISCID=68108b1c
DTITLE=Glenn Miller - A Legendary Performer
DYEAR=1900
DGENRE=Jazz
TTITLE0=Moonlight Serenade
TTITLE1=Talk
TTITLE2=Sunrise Serenade
TTITLE3=Little Brown Jug
TTITLE4=Danny Boy
TTITLE5=Talk
TTITLE6=Tuxedo Junction
TTITLE7=My Melancholy Baby
TTITLE8=Pennsynvania 6-5000
TTITLE9=Sentinental Me
TTITLE10=Song of the Volga Boatmen
TTITLE11=Jack and Jill
TTITLE12=Take the "A" Train
TTITLE13=Talke
TTITLE14=A String of Pearls
TTITLE15=Star Dust
TTITLE16=Elmer's Tune
TTITLE17=Jingle Bells
TTITLE18=In the Mood
TTITLE19=Talk
TTITLE20=Chatanooga Choo Choo
TTITLE21=At Last
TTITLE22=Moonlight COcktail
TTITLE23=I've got a Gal in Kalamazoo
TTITLE24=Talk
TTITLE25=Juke Box Saturday Night
TTITLE26=Talk
TTITLE27=Moonlight Serenade
EXTD=
EXTT0=
EXTT1=
EXTT2=
EXTT3=
EXTT4=
EXTT5=
EXTT6=
EXTT7=
EXTT8=
EXTT9=
EXTT10=
EXTT11=
EXTT12=
EXTT13=
EXTT14=
EXTT15=
EXTT16=
EXTT17=
EXTT18=
EXTT19=
EXTT20=
EXTT21=
EXTT22=
EXTT23=
EXTT24=
EXTT25=
EXTT26=
EXTT27=
PLAYORDER=
